# xmcd
#
# Track frame offsets: 
#        150
#        20880
#        35309
#        53278
#        68003
#        83893
#        99446
#        123647
#        148766
#        167601
#        184993
#        209497
#        234517
#        243075
#        265132
#        287012
#        297533
#        318835
#
# Disc length: 4433 seconds
#
# Revision: 0
# Processed by: cddbd v1.5.2PL0 Copyright (c) Steve Scherf et al.
# Submitted via: ExactAudioCopy v0.99pb4
#
DISCID=04114f12
DTITLE=Fabrizio de Andre' - Vol. 8 and Rimini
DYEAR=2001
DGENRE=Blues
TTITLE0=La cattiva strada
TTITLE1=Oceano
TTITLE2=Nancy
TTITLE3=Le storie di ieri
TTITLE4=Giugno '73
TTITLE5=Dolce Luna
TTITLE6=Canzone per l'estate
TTITLE7=Amico fragile
TTITLE8=Rimini
TTITLE9=Volta la carta
TTITLE10=Coda di lupo
TTITLE11=Andrea
TTITLE12=Tema di Rimini
TTITLE13=Avventura a Durango
TTITLE14=Sally
TTITLE15=Zirichiltaggia (Baddu tundu)
TTITLE16=Parlando del naufragio della London Valour
TTITLE17=Folaghe
EXTD=
EXTT0=
EXTT1=
EXTT2=
EXTT3=
EXTT4=
EXTT5=
EXTT6=
EXTT7=
EXTT8=
EXTT9=
EXTT10=
EXTT11=
EXTT12=
EXTT13=
EXTT14=
EXTT15=
EXTT16=
EXTT17=
PLAYORDER=
